<svg width="144" height="201" viewBox="0 0 144 201" fill="none" xmlns="http://www.w3.org/2000/svg">
<path d="M142 141V127L132.5 133H129L123.5 138.5L118 137L106 141V145.5L85.5 154.5L46.5 157H7V199.5L85.5 195.5L108 175V165V162.5L118 157L125 152L132.5 146H137.5L142 141Z" stroke="black"/>
<path d="M132 134L142 127V112.5L129 116L107 121.5L85 130H68H7L8 153.5L3.5 151.5L1 157.5H7H47L85 155.5L107 145V141L121 138H124L129 134H132Z" stroke="black"/>
<path d="M9 131H2.5M2.5 131V127H9V105H69L106 102.5L143 98.5V112.5L106 121.5L85.5 131H2.5Z" stroke="black"/>
<path d="M9.5 106H4M4 106V99H9.5V91H4V85.5H9.5V79H83L143 82V99L85.5 103.5L4 106Z" stroke="black"/>
<path d="M10 78H4.5M4.5 78V72.5H10V64.5H4.5V59.5L8 60.5V53L84 55L142 69V82.5L84 78H4.5Z" stroke="black"/>
<path d="M8 53H4.5M4.5 53V46.5H8V39.5H4.5V33H8L84.5 36L143 60.5V69L87 55L4.5 53Z" stroke="black"/>
<path d="M10 29V34L83.5 35.5L143 60.5V42.5L132 37.5V34L125 29H118V24.5L108.5 22L104 19.5V15.5L93.5 12H87.5L82 7V4L71 1L73.5 7H46.5H2V12L7.5 15.5V19.5H2L4.5 27L10 29Z" stroke="black"/>
</svg>
