<svg width="144" height="201" viewBox="0 0 144 201" fill="none" xmlns="http://www.w3.org/2000/svg">
<path d="M142.5 141V127L133 133H129.5L124 138.5L118.5 137L106.5 141V145.5L86 154.5L47 157H7.5V199.5L86 195.5L108.5 175V165V162.5L118.5 157L125.5 152L133 146H138L142.5 141Z" fill="#BFF0FF" stroke="black"/>
<path d="M132.5 134L142.5 127V112.5L129.5 116L107.5 121.5L85.5 130H68.5H7.5L8.5 153.5L4 151.5L1.5 157.5H7.5H47.5L85.5 155.5L107.5 145V141L121.5 138H124.5L129.5 134H132.5Z" fill="#BFF0FF" stroke="black"/>
<path d="M3 131H9.5H86L106.5 121.5L143.5 112.5V98.5L106.5 102.5L69.5 105H9.5V127H3V131Z" fill="#BFF0FF"/>
<path d="M9.5 131H3M3 131V127H9.5V105H69.5L106.5 102.5L143.5 98.5V112.5L106.5 121.5L86 131H3Z" stroke="black"/>
<path d="M4.5 99V106L86 103.5L143.5 99V82L83.5 79H10V85.5H4.5V91H10V99H4.5Z" fill="#BFF0FF"/>
<path d="M10 106H4.5M4.5 106V99H10V91H4.5V85.5H10V79H83.5L143.5 82V99L86 103.5L4.5 106Z" stroke="black"/>
<path d="M5 78H10.5H84.5L142.5 82.5V69L84.5 55L8.5 53V60.5L5 59.5V64.5H10.5V72.5H5V78Z" fill="#BFF0FF"/>
<path d="M10.5 78H5M5 78V72.5H10.5V64.5H5V59.5L8.5 60.5V53L84.5 55L142.5 69V82.5L84.5 78H5Z" stroke="black"/>
<path d="M5 46.5V53L87.5 55L143.5 69V60.5L85 36L8.5 33H5V39.5H8.5V46.5H5Z" fill="#BFF0FF"/>
<path d="M8.5 53H5M5 53V46.5H8.5V39.5H5V33H8.5L85 36L143.5 60.5V69L87.5 55L5 53Z" stroke="black"/>
<path d="M10.5 29V34L84 35.5L143.5 60.5V42.5L132.5 37.5V34L125.5 29H118.5V24.5L109 22L104.5 19.5V15.5L94 12H88L82.5 7V4L71.5 1L74 7H47H2.5V12L8 15.5V19.5H2.5L5 27L10.5 29Z" fill="#BFF0FF" stroke="black"/>
</svg>
